<svg width="40" height="40" viewBox="0 0 40 40" fill="none" xmlns="http://www.w3.org/2000/svg">
<path fill-rule="evenodd" clip-rule="evenodd" d="M33.4268 9.02C33.4268 10.3867 32.3134 11.5 30.9468 11.5C29.5801 11.5 28.4668 10.3867 28.4668 9.02C28.4668 7.65333 29.5734 6.54 30.9468 6.54C32.3134 6.54 33.4268 7.64667 33.4268 9.02ZM20.0601 30.5733C14.2001 30.5733 9.43343 25.8067 9.43343 19.9467C9.43343 17.06 10.6201 14.2467 12.6934 12.24C14.7134 10.28 17.3468 9.24667 20.1134 9.32667C23.4201 9.42667 26.1668 10.54 28.0534 12.5533C29.8401 14.46 30.7534 17.0333 30.6868 19.9933C30.6268 22.8267 29.5068 25.48 27.5401 27.4667C25.5468 29.4667 22.8934 30.5733 20.0601 30.5733ZM19.8134 12.8933C18.0934 12.8933 16.4534 13.5667 15.1868 14.8C13.8068 16.14 13.0134 18.0133 13.0134 19.94C13.0134 23.8267 16.1734 26.9867 20.0601 26.9867C23.9268 26.9867 27.0201 23.8733 27.1068 19.9C27.1468 17.8933 26.5734 16.2 25.4401 14.9867C24.2201 13.6867 22.3401 12.96 20.0068 12.8933C19.9468 12.8933 19.8801 12.8933 19.8134 12.8933ZM28.1001 40H12.0268C5.72676 40 0.600098 34.8733 0.600098 28.5733V11.4267C0.600098 5.12667 5.72676 0 12.0268 0H28.1001C34.4001 0 39.5268 5.12667 39.5268 11.4267V28.5733C39.5201 34.8733 34.4001 40 28.1001 40ZM12.0268 2.93333C7.3401 2.93333 3.53343 6.74 3.53343 11.4267V28.5733C3.53343 33.26 7.3401 37.0667 12.0268 37.0667H28.1001C32.7868 37.0667 36.5934 33.2533 36.5934 28.5733V11.4267C36.5934 6.74 32.7801 2.93333 28.1001 2.93333H12.0268Z" fill="white"/>
</svg>
