<svg width="44" height="35" viewBox="0 0 44 35" fill="none" xmlns="http://www.w3.org/2000/svg">
<path d="M14.1607 34.7362C30.1913 34.7362 38.9601 21.4531 38.9601 9.93029C38.9601 9.55356 38.9536 9.17683 38.9341 8.80009C40.6359 7.56597 42.1168 6.03306 43.2795 4.2858C41.7206 4.9808 40.0383 5.44847 38.2716 5.65632C40.0708 4.57809 41.4543 2.8698 42.1039 0.830248C40.4216 1.83054 38.5509 2.55802 36.5698 2.94775C34.9914 1.25894 32.7245 0.200195 30.2173 0.200195C25.4042 0.200195 21.494 4.10393 21.494 8.91701C21.494 9.59903 21.5719 10.2681 21.7213 10.9046C14.479 10.5409 8.05501 7.07232 3.75506 1.79806C3.00809 3.08415 2.57939 4.58459 2.57939 6.17596C2.57939 9.20281 4.1188 11.8724 6.45714 13.4313C5.02816 13.3858 3.68361 12.9961 2.50795 12.3401C2.50795 12.3726 2.50795 12.4115 2.50795 12.4505C2.50795 16.6725 5.51531 20.1995 9.50348 20.9984C8.7695 21.1998 8.00305 21.3037 7.20411 21.3037C6.64551 21.3037 6.0934 21.2453 5.56728 21.1478C6.67799 24.6099 9.89321 27.1301 13.7125 27.2015C10.7311 29.5399 6.97028 30.9364 2.88468 30.9364C2.18318 30.9364 1.48817 30.8974 0.806152 30.813C4.65792 33.2877 9.23717 34.7362 14.1607 34.7362Z" fill="white"/>
</svg>
