<svg width="45" height="32" viewBox="0 0 45 32" fill="none" xmlns="http://www.w3.org/2000/svg">
<path fill-rule="evenodd" clip-rule="evenodd" d="M43.5377 5.6056C43.0362 3.71375 41.557 2.22821 39.6779 1.72033C36.2751 0.799805 22.6259 0.799805 22.6259 0.799805C22.6259 0.799805 8.97664 0.799805 5.57386 1.72033C3.69471 2.22821 2.21551 3.71375 1.71398 5.6056C0.799805 9.02742 0.799805 16.1758 0.799805 16.1758C0.799805 16.1758 0.799805 23.3242 1.71398 26.7524C2.21551 28.6442 3.69471 30.1297 5.57386 30.6376C8.97664 31.5518 22.6259 31.5518 22.6259 31.5518C22.6259 31.5518 36.2751 31.5518 39.6779 30.6376C41.557 30.1297 43.0362 28.6442 43.5377 26.7524C44.4519 23.3242 44.4519 16.1758 44.4519 16.1758C44.4519 16.1758 44.4519 9.02742 43.5377 5.6056ZM18.1629 22.6703V9.68767L29.5711 16.1822L18.1629 22.6703Z" fill="white"/>
</svg>
